<svg width="64" height="64" viewBox="0 0 64 64" fill="none" xmlns="http://www.w3.org/2000/svg">
  <rect width="64" height="64" rx="14" fill="#0F766E"/>
  <path d="M20.8 20.8C27.4 14.2 36.6 14.2 43.2 20.8C49.8 27.4 49.8 36.6 43.2 43.2L37.6 48.8C35.6 50.8 32.4 50.8 30.4 48.8L24.8 43.2C18.2 36.6 18.2 27.4 24.8 20.8Z" fill="white" opacity="0.85"/>
  <path d="M31.99 19C37.82 19 42.56 23.74 42.56 29.57C42.56 35.05 39.02 39.92 33.79 40.86L33.75 45.2C33.73 46.75 32.43 48 30.88 48C29.33 48 28.06 46.75 28.08 45.2L28.12 40.82C22.88 39.83 19.44 34.98 19.44 29.57C19.44 23.74 24.18 19 29.99 19H31.99Z" fill="#A7F3D0"/>
</svg>
